# xmcd
# 
# Track frame offsets:
#     150
#     17098
#     32137
#     52941
#     71469
#     97734
#     115679
#     137402
#     149535
#     165580
#     186060
#     206818
#     227105
# 
# Disc length: 3222
# 
# Revision: 1
# Processed by: cddbd v1.5.2PL0 Copyright (c) Steve Scherf et al.
# Submitted via: fre:ac v1.0.27
# 
DISCID=a90c940d
DTITLE=Michael Powers - Prodigal Son
DYEAR=2006
DGENRE=Blues
TTITLE0=Goin' Down
TTITLE1=It's A Bloody Life
TTITLE2=Prodigal Son
TTITLE3=White Lightning
TTITLE4=Voodoo Chile
TTITLE5=Wild Side
TTITLE6=Every Grain Of Sand
TTITLE7=Lay The Hooch
TTITLE8=Oh John
TTITLE9=Signed D.C.
TTITLE10=Compassion
TTITLE11=You Got To Go Down
TTITLE12=Train Kept A Rollin'
EXTD=As Heard On BU4B
EXTT0=
EXTT1=
EXTT2=
EXTT3=
EXTT4=
EXTT5=
EXTT6=
EXTT7=
EXTT8=
EXTT9=
EXTT10=
EXTT11=
EXTT12=
PLAYORDER=
